<mxfile host="65bd71144e">
    <diagram id="wkpzJGTXK3qmD3zvrBtF" name="Page-1">
        <mxGraphModel dx="1060" dy="354" grid="1" gridSize="10" guides="1" tooltips="1" connect="1" arrows="1" fold="1" page="1" pageScale="1" pageWidth="850" pageHeight="1100" math="0" shadow="0">
            <root>
                <mxCell id="0"/>
                <mxCell id="1" parent="0"/>
                <mxCell id="2" value="movies" style="rounded=0;whiteSpace=wrap;html=1;verticalAlign=top;fillColor=#dae8fc;strokeColor=#6c8ebf;fontColor=#000000;" parent="1" vertex="1">
                    <mxGeometry x="460" y="100" width="120" height="150" as="geometry"/>
                </mxCell>
                <mxCell id="3" value="id*" style="rounded=0;whiteSpace=wrap;html=1;verticalAlign=top;" parent="1" vertex="1">
                    <mxGeometry x="460" y="130" width="120" height="120" as="geometry"/>
                </mxCell>
                <mxCell id="4" value="imdb_id" style="rounded=0;whiteSpace=wrap;html=1;verticalAlign=top;" parent="1" vertex="1">
                    <mxGeometry x="460" y="160" width="120" height="90" as="geometry"/>
                </mxCell>
                <mxCell id="5" value="title" style="rounded=0;whiteSpace=wrap;html=1;verticalAlign=top;" parent="1" vertex="1">
                    <mxGeometry x="460" y="190" width="120" height="60" as="geometry"/>
                </mxCell>
                <mxCell id="6" value="&lt;span&gt;year&lt;/span&gt;" style="rounded=0;whiteSpace=wrap;html=1;" parent="1" vertex="1">
                    <mxGeometry x="460" y="220" width="120" height="30" as="geometry"/>
                </mxCell>
                <mxCell id="11" value="users" style="rounded=0;whiteSpace=wrap;html=1;verticalAlign=top;fillColor=#dae8fc;strokeColor=#6c8ebf;fontColor=#000000;" parent="1" vertex="1">
                    <mxGeometry x="860" y="100" width="120" height="90" as="geometry"/>
                </mxCell>
                <mxCell id="12" value="id*" style="rounded=0;whiteSpace=wrap;html=1;verticalAlign=top;" parent="1" vertex="1">
                    <mxGeometry x="860" y="130" width="120" height="60" as="geometry"/>
                </mxCell>
                <mxCell id="13" value="email" style="rounded=0;whiteSpace=wrap;html=1;verticalAlign=top;" parent="1" vertex="1">
                    <mxGeometry x="860" y="160" width="120" height="30" as="geometry"/>
                </mxCell>
                <mxCell id="14" value="" style="endArrow=none;html=1;fontColor=#000000;exitX=1;exitY=0.5;exitDx=0;exitDy=0;entryX=1;entryY=0.25;entryDx=0;entryDy=0;" parent="1" source="44" target="12" edge="1">
                    <mxGeometry width="50" height="50" relative="1" as="geometry">
                        <mxPoint x="1000" y="340" as="sourcePoint"/>
                        <mxPoint x="1030" y="190" as="targetPoint"/>
                        <Array as="points">
                            <mxPoint x="1020" y="335"/>
                            <mxPoint x="1020" y="145"/>
                        </Array>
                    </mxGeometry>
                </mxCell>
                <mxCell id="16" value="iDeal Streaming Schema" style="text;html=1;strokeColor=none;fillColor=none;align=center;verticalAlign=middle;whiteSpace=wrap;rounded=0;fontSize=20;" parent="1" vertex="1">
                    <mxGeometry x="340" y="20" width="380" height="30" as="geometry"/>
                </mxCell>
                <mxCell id="18" value="&lt;span&gt;director&lt;/span&gt;" style="rounded=0;whiteSpace=wrap;html=1;" parent="1" vertex="1">
                    <mxGeometry x="460" y="280" width="120" height="30" as="geometry"/>
                </mxCell>
                <mxCell id="21" value="bookmarks" style="rounded=0;whiteSpace=wrap;html=1;verticalAlign=top;fillColor=#dae8fc;strokeColor=#6c8ebf;fontColor=#000000;" parent="1" vertex="1">
                    <mxGeometry x="660" y="100" width="120" height="120" as="geometry"/>
                </mxCell>
                <mxCell id="22" value="id*" style="rounded=0;whiteSpace=wrap;html=1;verticalAlign=top;" parent="1" vertex="1">
                    <mxGeometry x="660" y="130" width="120" height="90" as="geometry"/>
                </mxCell>
                <mxCell id="23" value="movie_id" style="rounded=0;whiteSpace=wrap;html=1;verticalAlign=top;" parent="1" vertex="1">
                    <mxGeometry x="660" y="160" width="120" height="60" as="geometry"/>
                </mxCell>
                <mxCell id="24" value="user_id" style="rounded=0;whiteSpace=wrap;html=1;verticalAlign=top;" parent="1" vertex="1">
                    <mxGeometry x="660" y="190" width="120" height="30" as="geometry"/>
                </mxCell>
                <mxCell id="25" value="timestamps" style="rounded=0;whiteSpace=wrap;html=1;verticalAlign=top;" parent="1" vertex="1">
                    <mxGeometry x="660" y="220" width="120" height="30" as="geometry"/>
                </mxCell>
                <mxCell id="26" value="" style="endArrow=none;html=1;fontColor=#000000;exitX=1;exitY=0.5;exitDx=0;exitDy=0;entryX=0;entryY=0.5;entryDx=0;entryDy=0;" parent="1" source="24" edge="1" target="42">
                    <mxGeometry width="50" height="50" relative="1" as="geometry">
                        <mxPoint x="790" y="215" as="sourcePoint"/>
                        <mxPoint x="820" y="300" as="targetPoint"/>
                        <Array as="points">
                            <mxPoint x="810" y="205"/>
                            <mxPoint x="810" y="305"/>
                        </Array>
                    </mxGeometry>
                </mxCell>
                <mxCell id="28" value="" style="endArrow=none;html=1;fontColor=#000000;entryX=0;entryY=0.25;entryDx=0;entryDy=0;exitX=1.017;exitY=0.157;exitDx=0;exitDy=0;exitPerimeter=0;" parent="1" source="3" target="23" edge="1">
                    <mxGeometry width="50" height="50" relative="1" as="geometry">
                        <mxPoint x="590" y="156.44" as="sourcePoint"/>
                        <mxPoint x="670" y="185" as="targetPoint"/>
                        <Array as="points">
                            <mxPoint x="620" y="149"/>
                            <mxPoint x="620" y="175"/>
                        </Array>
                    </mxGeometry>
                </mxCell>
                <mxCell id="29" value="actors" style="rounded=0;whiteSpace=wrap;html=1;verticalAlign=top;fillColor=#dae8fc;strokeColor=#6c8ebf;fontColor=#000000;" parent="1" vertex="1">
                    <mxGeometry x="60" y="100" width="120" height="90" as="geometry"/>
                </mxCell>
                <mxCell id="30" value="id*" style="rounded=0;whiteSpace=wrap;html=1;verticalAlign=top;" parent="1" vertex="1">
                    <mxGeometry x="60" y="130" width="120" height="60" as="geometry"/>
                </mxCell>
                <mxCell id="33" value="timestamps" style="rounded=0;whiteSpace=wrap;html=1;verticalAlign=top;" parent="1" vertex="1">
                    <mxGeometry x="60" y="160" width="120" height="30" as="geometry"/>
                </mxCell>
                <mxCell id="34" value="cast" style="rounded=0;whiteSpace=wrap;html=1;verticalAlign=top;fillColor=#dae8fc;strokeColor=#6c8ebf;fontColor=#000000;" parent="1" vertex="1">
                    <mxGeometry x="260" y="100" width="120" height="120" as="geometry"/>
                </mxCell>
                <mxCell id="35" value="id*" style="rounded=0;whiteSpace=wrap;html=1;verticalAlign=top;" parent="1" vertex="1">
                    <mxGeometry x="260" y="130" width="120" height="90" as="geometry"/>
                </mxCell>
                <mxCell id="36" value="cast_id" style="rounded=0;whiteSpace=wrap;html=1;verticalAlign=top;" parent="1" vertex="1">
                    <mxGeometry x="260" y="160" width="120" height="60" as="geometry"/>
                </mxCell>
                <mxCell id="37" value="movie_id" style="rounded=0;whiteSpace=wrap;html=1;verticalAlign=top;" parent="1" vertex="1">
                    <mxGeometry x="260" y="190" width="120" height="30" as="geometry"/>
                </mxCell>
                <mxCell id="38" value="timestamps" style="rounded=0;whiteSpace=wrap;html=1;verticalAlign=top;" parent="1" vertex="1">
                    <mxGeometry x="260" y="220" width="120" height="30" as="geometry"/>
                </mxCell>
                <mxCell id="39" value="" style="endArrow=none;html=1;fontColor=#000000;entryX=0;entryY=0.25;entryDx=0;entryDy=0;exitX=1;exitY=0.137;exitDx=0;exitDy=0;exitPerimeter=0;" parent="1" edge="1">
                    <mxGeometry width="50" height="50" relative="1" as="geometry">
                        <mxPoint x="180" y="145.94000000000005" as="sourcePoint"/>
                        <mxPoint x="260" y="174.5" as="targetPoint"/>
                        <Array as="points">
                            <mxPoint x="220" y="145.5"/>
                            <mxPoint x="220" y="174.5"/>
                        </Array>
                    </mxGeometry>
                </mxCell>
                <mxCell id="40" value="" style="endArrow=none;html=1;fontColor=#000000;entryX=0;entryY=0.25;entryDx=0;entryDy=0;exitX=1;exitY=0.5;exitDx=0;exitDy=0;" parent="1" edge="1">
                    <mxGeometry width="50" height="50" relative="1" as="geometry">
                        <mxPoint x="380" y="205" as="sourcePoint"/>
                        <mxPoint x="460" y="145" as="targetPoint"/>
                        <Array as="points">
                            <mxPoint x="420" y="205"/>
                            <mxPoint x="420" y="145"/>
                        </Array>
                    </mxGeometry>
                </mxCell>
                <mxCell id="41" value="password" style="rounded=0;whiteSpace=wrap;html=1;verticalAlign=top;" vertex="1" parent="1">
                    <mxGeometry x="860" y="190" width="120" height="30" as="geometry"/>
                </mxCell>
                <mxCell id="42" value="profiles" style="rounded=0;whiteSpace=wrap;html=1;verticalAlign=top;fillColor=#dae8fc;strokeColor=#6c8ebf;fontColor=#000000;" vertex="1" parent="1">
                    <mxGeometry x="860" y="260" width="120" height="90" as="geometry"/>
                </mxCell>
                <mxCell id="43" value="id*" style="rounded=0;whiteSpace=wrap;html=1;verticalAlign=top;" vertex="1" parent="1">
                    <mxGeometry x="860" y="290" width="120" height="60" as="geometry"/>
                </mxCell>
                <mxCell id="44" value="user_id" style="rounded=0;whiteSpace=wrap;html=1;verticalAlign=top;" vertex="1" parent="1">
                    <mxGeometry x="860" y="320" width="120" height="30" as="geometry"/>
                </mxCell>
                <mxCell id="46" value="&lt;span&gt;genre&lt;/span&gt;" style="rounded=0;whiteSpace=wrap;html=1;" vertex="1" parent="1">
                    <mxGeometry x="460" y="250" width="120" height="30" as="geometry"/>
                </mxCell>
            </root>
        </mxGraphModel>
    </diagram>
</mxfile>